<svg fill="none" height="16" viewBox="0 0 16 16" width="16" xmlns="http://www.w3.org/2000/svg"><path d="m13 2h-1.5v-.5c0-.13261-.0527-.25979-.1464-.35355-.0938-.09377-.221-.14645-.3536-.14645s-.2598.05268-.3536.14645c-.0937.09376-.1464.22094-.1464.35355v.5h-5v-.5c0-.13261-.05268-.25979-.14645-.35355-.09376-.09377-.22094-.14645-.35355-.14645s-.25979.05268-.35355.14645c-.09377.09376-.14645.22094-.14645.35355v.5h-1.5c-.26522 0-.51957.10536-.70711.29289-.18753.18754-.29289.44189-.29289.70711v10c0 .2652.10536.5196.29289.7071.18754.1875.44189.2929.70711.2929h10c.2652 0 .5196-.1054.7071-.2929s.2929-.4419.2929-.7071v-10c0-.26522-.1054-.51957-.2929-.70711-.1875-.18753-.4419-.29289-.7071-.29289zm-8.5 1v.5c0 .13261.05268.25979.14645.35355.09376.09377.22094.14645.35355.14645s.25979-.05268.35355-.14645c.09377-.09376.14645-.22094.14645-.35355v-.5h5v.5c0 .13261.0527.25979.1464.35355.0938.09377.221.14645.3536.14645s.2598-.05268.3536-.14645c.0937-.09376.1464-.22094.1464-.35355v-.5h1.5v2h-10v-2zm8.5 10h-10v-7h10z" fill="#1c1c1c"/></svg>